<svg width="80" height="80" viewBox="0 0 80 80" fill="none" xmlns="http://www.w3.org/2000/svg">
<g clip-path="url(#clip0_41_284)">
<path d="M17.52 0H62.48C72.1562 0 80 7.84375 80 17.52V62.48C80 72.1562 72.1562 80 62.48 80H17.52C7.84375 80 0 72.1562 0 62.48V17.52C0 7.84375 7.84375 0 17.52 0Z" fill="url(#paint0_linear_41_284)"/>
<path d="M25.6381 58.0655L25.6456 58.068L22.9103 62.8055C21.9118 64.5348 19.7006 65.1273 17.9712 64.1289C16.2421 63.1305 15.6493 60.9192 16.6478 59.1898L18.6628 55.6998L18.8562 55.3648C19.2015 54.8686 20.0537 54.0117 21.7584 54.173C21.7584 54.173 25.77 54.6083 26.0603 56.6933C26.0603 56.6933 26.0996 57.3792 25.6381 58.0655ZM64.4328 45.9655H55.9034C55.3225 45.9264 55.069 45.7189 54.969 45.5983L54.9628 45.5873L45.8325 29.773L45.8206 29.7808L45.2731 28.9958C44.3756 27.6233 42.9506 31.1333 42.9506 31.1333C41.249 35.0445 43.1921 39.4911 43.8693 40.8352L56.5512 62.8008C57.5493 64.5298 59.7606 65.1227 61.4903 64.1239C63.2193 63.1255 63.8121 60.9142 62.8134 59.1848L59.6425 53.6923C59.5809 53.5592 59.474 53.198 60.1243 53.1964H64.4328C66.4296 53.1964 68.0484 51.5777 68.0484 49.5808C68.0484 47.5839 66.4296 45.9655 64.4328 45.9655ZM47.8659 50.8805C47.8659 50.8805 48.3212 53.1964 46.5596 53.1964H15.0287C13.0318 53.1964 11.4131 51.5777 11.4131 49.5808C11.4131 47.5839 13.0318 45.9652 15.0287 45.9652H23.135C24.4437 45.8895 24.7537 45.1339 24.7537 45.1339L24.7612 45.1376L35.3425 26.8102L35.3393 26.8095C35.5321 26.4555 35.3715 26.1208 35.3437 26.068L31.849 20.0152C30.8506 18.2861 31.4431 16.0745 33.1725 15.0764C34.9018 14.078 37.1131 14.6702 38.1115 16.3995L39.7321 19.2067L41.35 16.4045C42.3484 14.6755 44.5596 14.0827 46.289 15.0814C48.0184 16.0798 48.6109 18.2908 47.6125 20.0202L32.8881 45.5233C32.8237 45.6786 32.804 45.9223 33.2831 45.9652H42.0843L42.0862 46.0511C42.0862 46.0511 47.1731 46.1301 47.8659 50.8805Z" fill="#070917"/>
</g>
<defs>
<linearGradient id="paint0_linear_41_284" x1="4000" y1="0" x2="4000" y2="8000" gradientUnits="userSpaceOnUse">
<stop stop-color="#1765FB"/>
<stop offset="1" stop-color="#1A74E8"/>
</linearGradient>
<clipPath id="clip0_41_284">
<rect width="80" height="80" rx="25" fill="white"/>
</clipPath>
</defs>
</svg>
