<svg width="25" height="20" viewBox="0 0 25 20" fill="none" xmlns="http://www.w3.org/2000/svg">
<path d="M14.6512 19.888C20.3634 19.164 24.7435 15.013 24.7435 10C24.7435 4.477 19.4278 0 12.8703 0C6.3127 0 0.99707 4.477 0.99707 10C0.99707 15.013 5.37709 19.165 11.0893 19.888V13H9.30831C8.83596 13 8.38296 12.842 8.04897 12.5607C7.71497 12.2794 7.52733 11.8978 7.52733 11.5C7.52733 11.1022 7.71497 10.7206 8.04897 10.4393C8.38296 10.158 8.83596 10 9.30831 10H11.0893V8C11.0893 7.07174 11.5271 6.1815 12.3064 5.52513C13.0858 4.86875 14.1428 4.5 15.2449 4.5H15.8386C16.3109 4.5 16.7639 4.65804 17.0979 4.93934C17.4319 5.22064 17.6195 5.60218 17.6195 6C17.6195 6.39782 17.4319 6.77936 17.0979 7.06066C16.7639 7.34196 16.3109 7.5 15.8386 7.5H15.2449C15.0875 7.5 14.9365 7.55268 14.8251 7.64645C14.7138 7.74021 14.6512 7.86739 14.6512 8V10H16.4322C16.9046 10 17.3576 10.158 17.6916 10.4393C18.0256 10.7206 18.2132 11.1022 18.2132 11.5C18.2132 11.8978 18.0256 12.2794 17.6916 12.5607C17.3576 12.842 16.9046 13 16.4322 13H14.6512V19.888Z" fill="white"/>
</svg>
