<svg width="80" height="80" viewBox="0 0 80 80" fill="none" xmlns="http://www.w3.org/2000/svg">
<g clip-path="url(#clip0_41_279)">
<path d="M55.0163 56.9023L14.5802 77.7348L14.5802 77.7348L14.5734 77.7383C13.3763 78.3667 12.0308 78.7417 10.6402 78.8303C9.24952 78.919 7.85672 78.7186 6.56966 78.2468L6.22549 79.1857L6.56966 78.2468C5.2827 77.775 4.14052 77.0464 3.22658 76.1233C2.46421 75.3533 1.87781 74.4656 1.49177 73.5106L37.3476 39.5286L55.0163 56.9023Z" fill="#EA4335" stroke="black" stroke-width="2"/>
<path d="M38.0574 38.982L56.9007 24.0241L74.3259 33.0528L74.3204 33.0772C75.7501 33.7544 76.9339 34.7662 77.7537 35.9917C78.5728 37.216 79 38.6099 79 40.0232C79 41.4366 78.5728 42.8305 77.7537 44.0548C76.9339 45.2803 75.7501 46.2921 74.3204 46.9693L74.3049 46.9766L74.2896 46.9845L57.0209 55.9041L38.0574 38.982Z" fill="#FBBC04" stroke="black" stroke-width="2"/>
<path d="M1.0001 8.9359H1.00012L1.00009 8.93076C0.999392 8.79495 1.00275 8.65921 1.01016 8.52369L37.1055 39.058L1.00974 71.2867C1.0037 71.1695 1.00048 71.0523 1.0001 70.9349V8.9359Z" fill="#4285F4" stroke="black" stroke-width="2"/>
<path d="M14.7081 2.15664L14.7082 2.1566C13.2897 1.40515 11.6696 1.00399 10.0137 1.00001L14.7081 2.15664ZM14.7081 2.15664L14.7161 2.16079M14.7081 2.15664L14.7161 2.16079M14.7161 2.16079L55.0375 23.0587M14.7161 2.16079L55.0375 23.0587M55.0375 23.0587L37.6364 38.5954L1.49982 6.31749C2.77833 3.18323 6.13353 0.993431 10.0136 1.00001L55.0375 23.0587Z" fill="#34A853" stroke="black" stroke-width="2"/>
</g>
<defs>
<clipPath id="clip0_41_279">
<rect width="80" height="80" fill="white"/>
</clipPath>
</defs>
</svg>
