<svg width="30" height="24" viewBox="0 0 30 24" fill="none" xmlns="http://www.w3.org/2000/svg">
<path d="M9.25227 0H21.2205C25.7798 0 29.4842 3.12 29.4842 6.96V17.04C29.4842 18.8859 28.6136 20.6562 27.0638 21.9615C25.5141 23.2667 23.4121 24 21.2205 24H9.25227C4.69296 24 0.988525 20.88 0.988525 17.04V6.96C0.988525 5.11409 1.85917 3.34379 3.40892 2.03854C4.95867 0.733284 7.06059 0 9.25227 0ZM8.96732 2.4C7.60696 2.4 6.30232 2.85514 5.34041 3.6653C4.37849 4.47546 3.83809 5.57427 3.83809 6.72V17.28C3.83809 19.668 6.132 21.6 8.96732 21.6H21.5054C22.8658 21.6 24.1704 21.1449 25.1323 20.3347C26.0942 19.5245 26.6346 18.4257 26.6346 17.28V6.72C26.6346 4.332 24.3407 2.4 21.5054 2.4H8.96732ZM22.7165 4.2C23.1888 4.2 23.6418 4.35804 23.9758 4.63934C24.3098 4.92064 24.4975 5.30218 24.4975 5.7C24.4975 6.09783 24.3098 6.47936 23.9758 6.76066C23.6418 7.04197 23.1888 7.2 22.7165 7.2C22.2441 7.2 21.7911 7.04197 21.4571 6.76066C21.1231 6.47936 20.9355 6.09783 20.9355 5.7C20.9355 5.30218 21.1231 4.92064 21.4571 4.63934C21.7911 4.35804 22.2441 4.2 22.7165 4.2ZM15.2364 6C17.1257 6 18.9377 6.63214 20.2737 7.75736C21.6097 8.88258 22.3603 10.4087 22.3603 12C22.3603 13.5913 21.6097 15.1174 20.2737 16.2426C18.9377 17.3679 17.1257 18 15.2364 18C13.347 18 11.535 17.3679 10.199 16.2426C8.863 15.1174 8.11244 13.5913 8.11244 12C8.11244 10.4087 8.863 8.88258 10.199 7.75736C11.535 6.63214 13.347 6 15.2364 6ZM15.2364 8.4C14.1027 8.4 13.0155 8.77928 12.2139 9.45442C11.4123 10.1295 10.962 11.0452 10.962 12C10.962 12.9548 11.4123 13.8705 12.2139 14.5456C13.0155 15.2207 14.1027 15.6 15.2364 15.6C16.37 15.6 17.4572 15.2207 18.2588 14.5456C19.0604 13.8705 19.5107 12.9548 19.5107 12C19.5107 11.0452 19.0604 10.1295 18.2588 9.45442C17.4572 8.77928 16.37 8.4 15.2364 8.4Z" fill="white"/>
</svg>
