<svg width="21" height="21" viewBox="0 0 21 21" fill="none" xmlns="http://www.w3.org/2000/svg">
<path fill-rule="evenodd" clip-rule="evenodd" d="M3.26904 5.63037C3.26904 5.36515 3.3744 5.1108 3.56194 4.92326C3.74947 4.73573 4.00383 4.63037 4.26904 4.63037H16.269C16.5343 4.63037 16.7886 4.73573 16.9762 4.92326C17.1637 5.1108 17.269 5.36515 17.269 5.63037C17.269 5.89559 17.1637 6.14994 16.9762 6.33748C16.7886 6.52501 16.5343 6.63037 16.269 6.63037H4.26904C4.00383 6.63037 3.74947 6.52501 3.56194 6.33748C3.3744 6.14994 3.26904 5.89559 3.26904 5.63037ZM3.26904 10.6304C3.26904 10.3652 3.3744 10.1108 3.56194 9.92326C3.74947 9.73573 4.00383 9.63037 4.26904 9.63037H16.269C16.5343 9.63037 16.7886 9.73573 16.9762 9.92326C17.1637 10.1108 17.269 10.3652 17.269 10.6304C17.269 10.8956 17.1637 11.1499 16.9762 11.3375C16.7886 11.525 16.5343 11.6304 16.269 11.6304H4.26904C4.00383 11.6304 3.74947 11.525 3.56194 11.3375C3.3744 11.1499 3.26904 10.8956 3.26904 10.6304ZM3.26904 15.6304C3.26904 15.3652 3.3744 15.1108 3.56194 14.9233C3.74947 14.7357 4.00383 14.6304 4.26904 14.6304H16.269C16.5343 14.6304 16.7886 14.7357 16.9762 14.9233C17.1637 15.1108 17.269 15.3652 17.269 15.6304C17.269 15.8956 17.1637 16.1499 16.9762 16.3375C16.7886 16.525 16.5343 16.6304 16.269 16.6304H4.26904C4.00383 16.6304 3.74947 16.525 3.56194 16.3375C3.3744 16.1499 3.26904 15.8956 3.26904 15.6304Z" fill="black"/>
</svg>
